<mxfile host="app.diagrams.net" modified="2021-11-09T10:18:04.860Z" agent="5.0 (Windows NT 10.0; Win64; x64) AppleWebKit/537.36 (KHTML, like Gecko) Chrome/95.0.4638.54 Safari/537.36" etag="_ioB-st8acJheJeROHA6" version="15.7.0" type="github">
  <diagram id="Npd62zTc91l9p_BbH5X5" name="Page-1">
    <mxGraphModel dx="1038" dy="547" grid="1" gridSize="10" guides="1" tooltips="1" connect="1" arrows="1" fold="1" page="1" pageScale="1" pageWidth="827" pageHeight="1169" math="0" shadow="0">
      <root>
        <mxCell id="0" />
        <mxCell id="1" parent="0" />
        <mxCell id="GulnhAo9liuhYGO9E0Ef-1" value="Make Reservation State Diagram" style="shape=umlFrame;whiteSpace=wrap;html=1;width=190;height=30;" vertex="1" parent="1">
          <mxGeometry x="40" y="40" width="760" height="480" as="geometry" />
        </mxCell>
        <mxCell id="GulnhAo9liuhYGO9E0Ef-10" value="" style="ellipse;html=1;shape=startState;fillColor=#000000;strokeColor=#ff0000;" vertex="1" parent="1">
          <mxGeometry x="70" y="130" width="30" height="30" as="geometry" />
        </mxCell>
        <mxCell id="GulnhAo9liuhYGO9E0Ef-11" value="" style="edgeStyle=orthogonalEdgeStyle;html=1;verticalAlign=bottom;endArrow=open;endSize=8;strokeColor=#ff0000;rounded=0;exitX=1;exitY=0.5;exitDx=0;exitDy=0;" edge="1" source="GulnhAo9liuhYGO9E0Ef-10" parent="1" target="GulnhAo9liuhYGO9E0Ef-12">
          <mxGeometry relative="1" as="geometry">
            <mxPoint x="85" y="220" as="targetPoint" />
          </mxGeometry>
        </mxCell>
        <mxCell id="GulnhAo9liuhYGO9E0Ef-12" value="" style="rounded=1;whiteSpace=wrap;html=1;" vertex="1" parent="1">
          <mxGeometry x="160" y="115" width="120" height="60" as="geometry" />
        </mxCell>
        <mxCell id="GulnhAo9liuhYGO9E0Ef-13" value="" style="ellipse;html=1;shape=endState;fillColor=#000000;strokeColor=#ff0000;" vertex="1" parent="1">
          <mxGeometry x="730" y="120" width="30" height="30" as="geometry" />
        </mxCell>
      </root>
    </mxGraphModel>
  </diagram>
</mxfile>
